# xmcd
#
# Track frame offsets: 
#        150
#        24402
#        50530
#        74055
#        111442
#        145955
#        171460
#        211270
#        249332
#        297075
#        309502
#
# Disc length: 4366 seconds
#
# Revision: 0
# Processed by: cddbd v1.5.2PL0 Copyright (c) Steve Scherf et al.
# Submitted via: ExactAudioCopy v0.99pb4
#
DISCID=a9110c0b
DTITLE=Various Artist - Showcasing The Blues - Vol 1 - Featuring South Florid
DTITLE=a's Finest Blues Bands
DYEAR=2002
DGENRE=Blues
TTITLE0=Hep Cat Boo Daddies - Hold On
TTITLE1=Josh Smith And The Frost - Luke Warm Water
TTITLE2=The Regulators - Black Night Is Falling (Live at Satchmo's)
TTITLE3=The Regulators - Lollipop Mama (Live at Satchmo's)
TTITLE4=Rhino Cats - Voodoo Chile
TTITLE5=Rhino Cats - Help Me
TTITLE6=The Hard Luck Blues Band - West Helena Woman (Live at The Poor
TTITLE6=House)
TTITLE7=Nucklebusters Blues Band - Road Rage (Live at The Poor House)
TTITLE8=Nucklebusters Blues Band - A Minor Blues Depression (Live at T
TTITLE8=he Poor House)
TTITLE9=Jason Madaris and Inside Out - I'm Too Sorry
TTITLE10=Tom D'Angelo and Friends - Big Legs
EXTD=
EXTT0=
EXTT1=
EXTT2=
EXTT3=
EXTT4=
EXTT5=
EXTT6=
EXTT7=
EXTT8=
EXTT9=
EXTT10=
PLAYORDER=
